<svg width="28" height="28" viewBox="0 0 28 28" fill="none" xmlns="http://www.w3.org/2000/svg">
<circle cx="14" cy="14" r="10" fill="#13A076"/>
<path fill-rule="evenodd" clip-rule="evenodd" d="M14.7612 9.75C14.7612 9.33579 14.4254 9 14.0112 9C13.597 9 13.2612 9.33579 13.2612 9.75V13.2612H9.75C9.33579 13.2612 9 13.597 9 14.0112C9 14.4254 9.33579 14.7612 9.75 14.7612H13.2612V18.2724C13.2612 18.6866 13.597 19.0224 14.0112 19.0224C14.4254 19.0224 14.7612 18.6866 14.7612 18.2724V14.7612H18.2724C18.6866 14.7612 19.0224 14.4254 19.0224 14.0112C19.0224 13.597 18.6866 13.2612 18.2724 13.2612H14.7612V9.75Z" fill="white"/>
</svg>
