<svg width="28" height="28" viewBox="0 0 28 28" fill="none" xmlns="http://www.w3.org/2000/svg">
<mask id="mask0_1055_521" style="mask-type:alpha" maskUnits="userSpaceOnUse" x="0" y="0" width="28" height="28">
<rect width="28" height="28" fill="#D9D9D9"/>
</mask>
<g mask="url(#mask0_1055_521)">
<path d="M12.25 15.75V18.0833C12.25 18.5694 12.4201 18.9826 12.7604 19.3229C13.1007 19.6632 13.5139 19.8333 14 19.8333C14.4861 19.8333 14.8993 19.6632 15.2396 19.3229C15.5799 18.9826 15.75 18.5694 15.75 18.0833V15.75H18.0833C18.5694 15.75 18.9826 15.5799 19.3229 15.2396C19.6632 14.8993 19.8333 14.4861 19.8333 14C19.8333 13.5139 19.6632 13.1007 19.3229 12.7604C18.9826 12.4201 18.5694 12.25 18.0833 12.25H15.75V9.91667C15.75 9.43056 15.5799 9.01736 15.2396 8.67708C14.8993 8.33681 14.4861 8.16667 14 8.16667C13.5139 8.16667 13.1007 8.33681 12.7604 8.67708C12.4201 9.01736 12.25 9.43056 12.25 9.91667V12.25H9.91667C9.43056 12.25 9.01736 12.4201 8.67708 12.7604C8.33681 13.1007 8.16667 13.5139 8.16667 14C8.16667 14.4861 8.33681 14.8993 8.67708 15.2396C9.01736 15.5799 9.43056 15.75 9.91667 15.75H12.25ZM5.83333 24.5C5.19167 24.5 4.64236 24.2715 4.18542 23.8146C3.72847 23.3576 3.5 22.8083 3.5 22.1667V5.83333C3.5 5.19167 3.72847 4.64236 4.18542 4.18542C4.64236 3.72847 5.19167 3.5 5.83333 3.5H22.1667C22.8083 3.5 23.3576 3.72847 23.8146 4.18542C24.2715 4.64236 24.5 5.19167 24.5 5.83333V22.1667C24.5 22.8083 24.2715 23.3576 23.8146 23.8146C23.3576 24.2715 22.8083 24.5 22.1667 24.5H5.83333ZM5.83333 22.1667H22.1667V5.83333H5.83333V22.1667Z" fill="#27CD9B"/>
</g>
</svg>
