<svg width="28" height="28" viewBox="0 0 28 28" fill="none" xmlns="http://www.w3.org/2000/svg">
<mask id="mask0_1055_1333" style="mask-type:alpha" maskUnits="userSpaceOnUse" x="0" y="0" width="28" height="28">
<rect width="28" height="28" fill="#D9D9D9"/>
</mask>
<g mask="url(#mask0_1055_1333)">
<path d="M15.1134 14.3886V10.1886C15.1134 9.85809 15.0016 9.58101 14.778 9.3574C14.5544 9.13379 14.2773 9.02198 13.9467 9.02198C13.6162 9.02198 13.3391 9.13379 13.1155 9.3574C12.8919 9.58101 12.7801 9.85809 12.7801 10.1886V14.8261C12.7801 14.9817 12.8092 15.1324 12.8676 15.2782C12.9259 15.4241 13.0134 15.5553 13.1301 15.672L16.3967 18.9386C16.6106 19.1525 16.8829 19.2595 17.2134 19.2595C17.544 19.2595 17.8162 19.1525 18.0301 18.9386C18.244 18.7248 18.3509 18.4525 18.3509 18.122C18.3509 17.7914 18.244 17.5192 18.0301 17.3053L15.1134 14.3886ZM13.9467 25.3553C12.4884 25.3553 11.1224 25.0782 9.84883 24.5241C8.57522 23.9699 7.46688 23.2213 6.52383 22.2782C5.58077 21.3352 4.83216 20.2268 4.27799 18.9532C3.72383 17.6796 3.44674 16.3136 3.44674 14.8553C3.44674 13.397 3.72383 12.031 4.27799 10.7574C4.83216 9.48379 5.58077 8.37545 6.52383 7.4324C7.46688 6.48934 8.57522 5.74073 9.84883 5.18656C11.1224 4.6324 12.4884 4.35531 13.9467 4.35531C15.4051 4.35531 16.7711 4.6324 18.0447 5.18656C19.3183 5.74073 20.4266 6.48934 21.3697 7.4324C22.3127 8.37545 23.0613 9.48379 23.6155 10.7574C24.1697 12.031 24.4467 13.397 24.4467 14.8553C24.4467 16.3136 24.1697 17.6796 23.6155 18.9532C23.0613 20.2268 22.3127 21.3352 21.3697 22.2782C20.4266 23.2213 19.3183 23.9699 18.0447 24.5241C16.7711 25.0782 15.4051 25.3553 13.9467 25.3553ZM2.33841 8.20531C2.12452 7.99143 2.01758 7.7192 2.01758 7.38865C2.01758 7.05809 2.12452 6.78587 2.33841 6.57198L5.66341 3.24698C5.8773 3.03309 6.14952 2.92615 6.48008 2.92615C6.81063 2.92615 7.08286 3.03309 7.29674 3.24698C7.51063 3.46087 7.61758 3.73309 7.61758 4.06365C7.61758 4.3942 7.51063 4.66643 7.29674 4.88031L3.97174 8.20531C3.75786 8.4192 3.48563 8.52615 3.15508 8.52615C2.82452 8.52615 2.5523 8.4192 2.33841 8.20531ZM25.5551 8.20531C25.3412 8.4192 25.069 8.52615 24.7384 8.52615C24.4079 8.52615 24.1356 8.4192 23.9217 8.20531L20.5967 4.88031C20.3829 4.66643 20.2759 4.3942 20.2759 4.06365C20.2759 3.73309 20.3829 3.46087 20.5967 3.24698C20.8106 3.03309 21.0829 2.92615 21.4134 2.92615C21.744 2.92615 22.0162 3.03309 22.2301 3.24698L25.5551 6.57198C25.769 6.78587 25.8759 7.05809 25.8759 7.38865C25.8759 7.7192 25.769 7.99143 25.5551 8.20531ZM13.9467 23.022C16.2217 23.022 18.1516 22.2296 19.7363 20.6449C21.3211 19.0602 22.1134 17.1303 22.1134 14.8553C22.1134 12.5803 21.3211 10.6505 19.7363 9.06573C18.1516 7.48101 16.2217 6.68865 13.9467 6.68865C11.6717 6.68865 9.74188 7.48101 8.15716 9.06573C6.57244 10.6505 5.78008 12.5803 5.78008 14.8553C5.78008 17.1303 6.57244 19.0602 8.15716 20.6449C9.74188 22.2296 11.6717 23.022 13.9467 23.022Z" fill="#27CD9B"/>
</g>
</svg>
