<svg width="28" height="28" viewBox="0 0 28 28" fill="none" xmlns="http://www.w3.org/2000/svg">
<mask id="mask0_1055_216" style="mask-type:alpha" maskUnits="userSpaceOnUse" x="0" y="0" width="28" height="28">
<rect width="28" height="28" fill="#D9D9D9"/>
</mask>
<g mask="url(#mask0_1055_216)">
<path d="M6.08675 25.6667C5.44508 25.6667 4.89578 25.4382 4.43883 24.9813C3.98189 24.5243 3.75342 23.975 3.75342 23.3334V7.00004C3.75342 6.35837 3.98189 5.80907 4.43883 5.35212C4.89578 4.89518 5.44508 4.66671 6.08675 4.66671H7.25342V3.50004C7.25342 3.16949 7.36522 2.8924 7.58883 2.66879C7.81245 2.44518 8.08953 2.33337 8.42008 2.33337C8.75064 2.33337 9.02772 2.44518 9.25133 2.66879C9.47495 2.8924 9.58675 3.16949 9.58675 3.50004V4.66671H18.9201V3.50004C18.9201 3.16949 19.0319 2.8924 19.2555 2.66879C19.4791 2.44518 19.7562 2.33337 20.0868 2.33337C20.4173 2.33337 20.6944 2.44518 20.918 2.66879C21.1416 2.8924 21.2534 3.16949 21.2534 3.50004V4.66671H22.4201C23.0618 4.66671 23.6111 4.89518 24.068 5.35212C24.5249 5.80907 24.7534 6.35837 24.7534 7.00004V23.3334C24.7534 23.975 24.5249 24.5243 24.068 24.9813C23.6111 25.4382 23.0618 25.6667 22.4201 25.6667H6.08675ZM6.08675 23.3334H22.4201V11.6667H6.08675V23.3334ZM6.08675 9.33337H22.4201V7.00004H6.08675V9.33337Z" fill="#27CD9B"/>
</g>
</svg>
