<svg width="28" height="28" viewBox="0 0 28 28" fill="none" xmlns="http://www.w3.org/2000/svg">
<mask id="mask0_1055_542" style="mask-type:alpha" maskUnits="userSpaceOnUse" x="0" y="0" width="28" height="28">
<rect width="28" height="28" fill="#D9D9D9"/>
</mask>
<g mask="url(#mask0_1055_542)">
<path d="M11.9581 22.2826V17.3826L7.69979 19.8326C7.21368 20.1048 6.69841 20.1728 6.15396 20.0367C5.60952 19.9006 5.20118 19.5798 4.92896 19.0742C4.65674 18.5881 4.58868 18.0728 4.72479 17.5284C4.8609 16.9839 5.17202 16.5756 5.65813 16.3034L9.91646 13.8242L5.65813 11.3742C5.17202 11.102 4.8609 10.6888 4.72479 10.1346C4.58868 9.58047 4.65674 9.06033 4.92896 8.57422C5.20118 8.08811 5.60952 7.777 6.15396 7.64089C6.69841 7.50477 7.21368 7.57283 7.69979 7.84505L11.9581 10.2951V5.36589C11.9581 4.802 12.1574 4.32075 12.556 3.92214C12.9547 3.52352 13.4359 3.32422 13.9998 3.32422C14.5637 3.32422 15.0449 3.52352 15.4435 3.92214C15.8422 4.32075 16.0415 4.802 16.0415 5.36589V10.2951L20.2998 7.84505C20.7859 7.57283 21.3012 7.50477 21.8456 7.64089C22.3901 7.777 22.7984 8.08811 23.0706 8.57422C23.3428 9.06033 23.406 9.58047 23.2602 10.1346C23.1144 10.6888 22.7984 11.102 22.3123 11.3742L18.0831 13.8242L22.3415 16.3034C22.8276 16.5756 23.1387 16.9839 23.2748 17.5284C23.4109 18.0728 23.3428 18.5978 23.0706 19.1034C22.7984 19.5895 22.3901 19.9006 21.8456 20.0367C21.3012 20.1728 20.7859 20.1048 20.2998 19.8326L16.0415 17.3826V22.2826C16.0415 22.8464 15.8422 23.3277 15.4435 23.7263C15.0449 24.1249 14.5637 24.3242 13.9998 24.3242C13.4359 24.3242 12.9547 24.1249 12.556 23.7263C12.1574 23.3277 11.9581 22.8464 11.9581 22.2826Z" fill="#27CD9B"/>
</g>
</svg>
