<svg width="160" height="168" viewBox="0 0 160 168" fill="none" xmlns="http://www.w3.org/2000/svg">
<path fill-rule="evenodd" clip-rule="evenodd" d="M133 35C133 48.8071 121.76 60 107.895 60C106.952 60 106.021 59.9482 105.105 59.8474C105.105 59.8982 105.105 59.9491 105.105 60C105.105 73.8071 93.8652 85 79.9999 85C79.0569 85 78.1261 84.9482 77.2101 84.8474C77.2104 84.8982 77.2105 84.9491 77.2105 85C77.2105 98.8071 65.9705 110 52.1053 110C38.24 110 27 98.8071 27 85C27 71.1929 38.24 60 52.1053 60C53.0483 60 53.9791 60.0518 54.8951 60.1526C54.8948 60.1018 54.8947 60.0509 54.8947 60C54.8947 46.1929 66.1347 35 79.9999 35C80.943 35 81.874 35.0518 82.79 35.1527C82.7897 35.1018 82.7896 35.0509 82.7896 35C82.7896 21.1929 94.0296 10 107.895 10C121.76 10 133 21.1929 133 35Z" fill="white"/>
<path d="M51.8278 139.912H55.0198V151H51.8278V139.912ZM53.7238 144.16H57.9478V146.776H53.7238V144.16ZM40.3318 151.888H55.0198V157.984H43.5478V160.624H40.3798V155.68H51.8758V154.336H40.3318V151.888ZM40.3798 159.4H55.6678V161.896H40.3798V159.4ZM43.5958 140.56C47.0038 140.56 49.5238 142.648 49.5238 145.6C49.5238 148.528 47.0038 150.64 43.5958 150.64C40.2118 150.64 37.6678 148.528 37.6678 145.6C37.6678 142.648 40.2118 140.56 43.5958 140.56ZM43.5958 143.128C41.9638 143.128 40.7638 144.04 40.7638 145.6C40.7638 147.16 41.9638 148.096 43.5958 148.096C45.2518 148.096 46.4518 147.16 46.4518 145.6C46.4518 144.04 45.2518 143.128 43.5958 143.128ZM59.1699 150.496H79.1859V153.016H59.1699V150.496ZM66.6099 148H69.8019V152.008H66.6099V148ZM61.4019 140.56H75.4659V143.056H61.4019V140.56ZM73.7619 140.56H76.9779V142.408C76.9779 144.328 76.9779 146.536 76.4739 149.416L73.2579 149.2C73.7619 146.392 73.7619 144.328 73.7619 142.408V140.56ZM74.7459 144.4V146.704L61.1859 147.28L60.8019 144.688L74.7459 144.4ZM69.1299 154.144C73.9539 154.144 76.8339 155.584 76.8339 158.152C76.8339 160.72 73.9539 162.136 69.1299 162.136C64.3059 162.136 61.4019 160.72 61.4019 158.152C61.4019 155.584 64.3059 154.144 69.1299 154.144ZM69.1299 156.616C66.1299 156.616 64.6419 157.072 64.6419 158.152C64.6419 159.232 66.1299 159.712 69.1299 159.712C72.1059 159.712 73.6179 159.232 73.6179 158.152C73.6179 157.072 72.1059 156.616 69.1299 156.616ZM81.488 147.976H83.336C87.968 147.976 90.488 147.832 93.296 147.256L93.632 149.728C90.776 150.376 88.088 150.472 83.336 150.472H81.488V147.976ZM81.488 141.064H91.424V143.56H84.656V149.368H81.488V141.064ZM95.024 139.912H98.216V150.952H95.024V139.912ZM97.328 144.088H101.168V146.68H97.328V144.088ZM83.528 151.864H98.216V158.008H86.744V160.672H83.576V155.656H95.072V154.36H83.528V151.864ZM83.576 159.376H98.864V161.896H83.576V159.376ZM102.366 150.496H122.382V153.016H102.366V150.496ZM109.806 148H112.998V152.008H109.806V148ZM104.598 140.56H118.662V143.056H104.598V140.56ZM116.958 140.56H120.174V142.408C120.174 144.328 120.174 146.536 119.67 149.416L116.454 149.2C116.958 146.392 116.958 144.328 116.958 142.408V140.56ZM117.942 144.4V146.704L104.382 147.28L103.998 144.688L117.942 144.4ZM112.326 154.144C117.15 154.144 120.03 155.584 120.03 158.152C120.03 160.72 117.15 162.136 112.326 162.136C107.502 162.136 104.598 160.72 104.598 158.152C104.598 155.584 107.502 154.144 112.326 154.144ZM112.326 156.616C109.326 156.616 107.838 157.072 107.838 158.152C107.838 159.232 109.326 159.712 112.326 159.712C115.302 159.712 116.814 159.232 116.814 158.152C116.814 157.072 115.302 156.616 112.326 156.616Z" fill="white"/>
</svg>
