<svg width="28" height="28" viewBox="0 0 28 28" fill="none" xmlns="http://www.w3.org/2000/svg">
<mask id="mask0_816_2262" style="mask-type:alpha" maskUnits="userSpaceOnUse" x="0" y="0" width="28" height="28">
<rect width="28" height="28" fill="#D9D9D9"/>
</mask>
<g mask="url(#mask0_816_2262)">
<path d="M12.3667 15.4583L9.85833 12.95C9.64444 12.7361 9.37222 12.6291 9.04167 12.6291C8.71111 12.6291 8.43889 12.7361 8.225 12.95C8.01111 13.1638 7.90417 13.4361 7.90417 13.7666C7.90417 14.0972 8.01111 14.3694 8.225 14.5833L11.55 17.9083C11.7833 18.1416 12.0556 18.2583 12.3667 18.2583C12.6778 18.2583 12.95 18.1416 13.1833 17.9083L19.775 11.3166C19.9889 11.1027 20.0958 10.8305 20.0958 10.5C20.0958 10.1694 19.9889 9.89718 19.775 9.68329C19.5611 9.4694 19.2889 9.36246 18.9583 9.36246C18.6278 9.36246 18.3556 9.4694 18.1417 9.68329L12.3667 15.4583ZM5.83333 24.5C5.19167 24.5 4.64236 24.2715 4.18542 23.8145C3.72847 23.3576 3.5 22.8083 3.5 22.1666V5.83329C3.5 5.19163 3.72847 4.64232 4.18542 4.18538C4.64236 3.72843 5.19167 3.49996 5.83333 3.49996H10.7333C10.9861 2.79996 11.409 2.23607 12.0021 1.80829C12.5951 1.38051 13.2611 1.16663 14 1.16663C14.7389 1.16663 15.4049 1.38051 15.9979 1.80829C16.591 2.23607 17.0139 2.79996 17.2667 3.49996H22.1667C22.8083 3.49996 23.3576 3.72843 23.8146 4.18538C24.2715 4.64232 24.5 5.19163 24.5 5.83329V22.1666C24.5 22.8083 24.2715 23.3576 23.8146 23.8145C23.3576 24.2715 22.8083 24.5 22.1667 24.5H5.83333ZM5.83333 22.1666H22.1667V5.83329H5.83333V22.1666ZM14 4.95829C14.2528 4.95829 14.4618 4.87565 14.6271 4.71038C14.7924 4.5451 14.875 4.33607 14.875 4.08329C14.875 3.83052 14.7924 3.62149 14.6271 3.45621C14.4618 3.29093 14.2528 3.20829 14 3.20829C13.7472 3.20829 13.5382 3.29093 13.3729 3.45621C13.2076 3.62149 13.125 3.83052 13.125 4.08329C13.125 4.33607 13.2076 4.5451 13.3729 4.71038C13.5382 4.87565 13.7472 4.95829 14 4.95829Z" fill="#27CD9B"/>
</g>
</svg>
